<svg id="Layer_1" xmlns="http://www.w3.org/2000/svg" xmlns:xlink="http://www.w3.org/1999/xlink" viewBox="0 0 438.52 81.35" style="enable-background:new 0 0 438.52 81.35;"><style>.st0{fill:#FFFFFF;}</style><g><path d="M327.6 61.86 279.33 2.53h-4.04v76.29h.11c4.3.0 7.79-3.49 7.79-7.79V19.58l48.05 58.84.33.4h3.83V2.53c-4.3.0-7.79 3.49-7.79 7.79V61.86z"/><path d="M36.13 2.53 1.91 78.82h0c5.18.0 9.88-3.06 11.96-7.81l26.04-59.19 26.13 59.21c2.09 4.74 6.78 7.79 11.96 7.79h.01L43.78 2.53H36.13z"/><path d="M155.85 43.54c4.2-4.24 6.49-10.22 6.43-16.85-.11-11.64-8.11-24.16-25.44-24.16h-33.7v76.29h0c4.36.0 7.89-3.53 7.89-7.89V10h25.81c5.07.0 9.36 1.63 12.42 4.73 2.98 3.02 4.66 7.34 4.6 11.86-.11 10.71-6.38 16.6-17.65 16.6h-13.43l25.47 27.9c4.5 4.93 10.87 7.74 17.54 7.74h0l-26.23-28.45C146.24 49.92 151.84 47.58 155.85 43.54z"/><path d="M402.39 2.53h-7.66l-34.22 76.29h.01c5.18.0 9.87-3.06 11.96-7.79l26.13-59.21 26.04 59.19c2.09 4.74 6.78 7.81 11.96 7.81L402.39 2.53z"/><path d="M191.91 2.53v7.52 26.86 7.52V71.3v7.52h7.89 39.17c4.15.0 7.52-3.37 7.52-7.52v0H199.8V44.44h34.81c4.15.0 7.52-3.37 7.52-7.52v0H199.8V10.05h39.17c4.15.0 7.52-3.37 7.52-7.52v0H199.8 191.91z"/></g></svg>